<svg xmlns="http://www.w3.org/2000/svg" viewBox="0 0 1720 1120" font-family="system-ui, -apple-system, Segoe UI, sans-serif" font-size="13" fill="#28404F">
  <defs>
    <style>
      .bg { fill:#F4F8FA; }
      .panel { fill:#FFFFFF; stroke:#6392AE; stroke-width:1; }
      .card { fill:#FFFFFF; stroke:#B3CDD6; stroke-width:1; }
      .pale { fill:#D4E0E5; stroke:#B3CDD6; stroke-width:1; }
      .navItem { fill:#FFFFFF; stroke:none; }
      .navActive { fill:#D4E0E5; stroke:#6392AE; stroke-width:1; }
      .btn { fill:#FFFFFF; stroke:#6392AE; stroke-width:1; }
      .btnPri { fill:#6392AE; stroke:#28404F; stroke-width:1; }
      .btnPriText { fill:#FFFFFF; font-weight:600; }
      .muted { fill:#5A6E7A; font-size:11px; }
      .title { font-size:18px; font-weight:600; }
      .h1 { font-size:22px; font-weight:700; }
      .h2 { font-size:14px; font-weight:600; }
      .divider { stroke:#B3CDD6; stroke-width:1; }
      .paper { fill:#FFFFFF; stroke:#28404F; stroke-width:1; }
      .pdfHead { fill:#28404F; }
    </style>
  </defs>

  <g id="desktop-published-programme">
    <text x="20" y="28" class="title">Desktop · 1280 px · Published programme</text>
    <rect x="20" y="40" width="1280" height="1040" class="bg"/>

    <rect x="20" y="40" width="1280" height="64" class="panel"/>
    <circle cx="56" cy="72" r="18" class="pale"/><text x="48" y="76" font-size="11">logo</text>
    <text x="92" y="78" class="h2">Hello Buddy Admin</text>
    <text x="1248" y="76" text-anchor="end">Nick G.</text>

    <rect x="20" y="104" width="240" height="976" class="panel"/>
    <rect x="32" y="128" width="216" height="36" class="navItem"/><text x="48" y="151">Dashboard</text>
    <rect x="32" y="172" width="216" height="36" class="navItem"/><text x="48" y="195">Owners</text>
    <rect x="32" y="216" width="216" height="36" class="navItem"/><text x="48" y="239">Pets</text>
    <rect x="32" y="260" width="216" height="36" class="navItem"/><text x="48" y="283">Treatment cases</text>
    <rect x="32" y="304" width="216" height="36" class="navItem"/><text x="48" y="327">Programmes</text>
    <rect x="32" y="348" width="216" height="36" class="navItem"/><text x="48" y="371">Exercise library</text>
    <rect x="32" y="392" width="216" height="36" class="navActive"/><text x="48" y="415">Published PDFs</text>
    <rect x="32" y="436" width="216" height="36" class="navItem"/><text x="48" y="459">Settings</text>

    <text x="284" y="126" class="muted">Home / Published PDFs / Bella / Programme v2</text>
    <text x="284" y="154" class="h1">Published programme · Bella · v2</text>
    <text x="284" y="174" class="muted">Published 22 Apr 2026 · generated by Nick Gilbert · current version</text>
    <rect x="936" y="132" width="140" height="36" class="btn"/><text x="964" y="156">Download PDF</text>
    <rect x="1088" y="132" width="120" height="36" class="btn"/><text x="1112" y="156">Copy link</text>
    <rect x="1216" y="132" width="64" height="36" class="btnPri"/><text x="1228" y="156" class="btnPriText">+ Draft</text>

    <rect x="284" y="196" width="620" height="860" class="card"/>
    <text x="304" y="222" class="muted">Read-only PDF view</text>
    <rect x="320" y="248" width="548" height="760" class="paper"/>
    <rect x="320" y="248" width="548" height="74" class="pdfHead"/>
    <circle cx="356" cy="286" r="18" class="pale"/><text x="348" y="290" font-size="11">logo</text>
    <text x="392" y="282" fill="#FFFFFF" font-size="18" font-weight="700">Hello Buddy Canine Physiotherapy</text>
    <text x="392" y="300" fill="#B3CDD6" font-size="11">Programme for Bella · Version 2</text>
    <text x="340" y="356" class="h2">Right hind cruciate post-op</text>
    <text x="340" y="376" class="muted">Owner: Mrs S. Patel · Practitioner: Nick Gilbert</text>
    <text x="340" y="396" class="muted">22 Apr 2026 to 20 May 2026</text>
    <rect x="340" y="430" width="508" height="28" class="pale"/><text x="352" y="449" class="h2">AM session</text>
    <rect x="340" y="470" width="508" height="90" class="card"/>
    <text x="356" y="494">1 · Sit-to-stand</text>
    <text x="356" y="514" class="muted">10 reps · 3 sets · 1 x per day</text>
    <text x="356" y="534" class="muted">Watch demo video</text>
    <rect x="340" y="582" width="508" height="28" class="pale"/><text x="352" y="601" class="h2">PM session</text>
    <rect x="340" y="622" width="508" height="90" class="card"/>
    <text x="356" y="646">1 · Cavaletti walk</text>
    <text x="356" y="666" class="muted">8 reps · 2 sets · 1 x per day</text>
    <text x="356" y="686" class="muted">Watch demo video</text>

    <rect x="924" y="196" width="356" height="300" class="card"/>
    <text x="944" y="222" class="h2">Version metadata</text>
    <line x1="924" y1="236" x2="1280" y2="236" class="divider"/>
    <text x="944" y="266" class="muted">Version</text><text x="944" y="286">v2 current</text>
    <text x="944" y="318" class="muted">Published by</text><text x="944" y="338">Nick Gilbert</text>
    <text x="944" y="370" class="muted">File</text><text x="944" y="390">bella-programme-v2.pdf</text>
    <text x="944" y="422" class="muted">Storage</text><text x="944" y="442">Blob: published-programmes</text>

    <rect x="924" y="516" width="356" height="540" class="card"/>
    <text x="944" y="542" class="h2">Version history</text>
    <line x1="924" y1="556" x2="1280" y2="556" class="divider"/>
    <text x="944" y="590">v2 · Current</text><text x="1220" y="590" class="muted">22 Apr</text>
    <text x="944" y="610" class="muted">Published after reassessment</text>
    <line x1="944" y1="634" x2="1260" y2="634" class="divider"/>
    <text x="944" y="668">v1 · Superseded</text><text x="1220" y="668" class="muted">04 Apr</text>
    <text x="944" y="688" class="muted">Initial post-op programme</text>
    <line x1="944" y1="712" x2="1260" y2="712" class="divider"/>
    <rect x="944" y="740" width="180" height="36" class="btnPri"/><text x="968" y="764" class="btnPriText">Create new draft from v2</text>
  </g>

  <g id="mobile-published-programme" transform="translate(1340, 0)">
    <text x="0" y="28" class="title">Mobile · 360 px</text>
    <rect x="0" y="40" width="360" height="1040" class="bg"/>
    <rect x="0" y="40" width="360" height="56" class="panel"/>
    <rect x="12" y="56" width="24" height="24" class="card"/><text x="18" y="73" font-size="11">←</text>
    <text x="48" y="74" class="h2">Published PDF</text>
    <rect x="312" y="56" width="36" height="24" class="card"/><text x="322" y="73" font-size="11">⋯</text>

    <text x="16" y="120" class="h2">Bella · v2 current</text>
    <text x="16" y="140" class="muted">Published 22 Apr · Nick Gilbert</text>

    <rect x="12" y="168" width="336" height="460" class="paper"/>
    <rect x="12" y="168" width="336" height="56" class="pdfHead"/>
    <text x="28" y="202" fill="#FFFFFF" font-size="14" font-weight="700">Hello Buddy</text>
    <text x="24" y="254" class="h2">Cruciate post-op</text>
    <text x="24" y="274" class="muted">Owner-facing PDF preview</text>

    <rect x="12" y="648" width="336" height="96" class="card"/>
    <text x="28" y="672" class="h2">Version history</text>
    <text x="28" y="692" class="muted">v2 current · v1 superseded</text>
    <rect x="200" y="660" width="136" height="32" class="btnPri"/><text x="218" y="680" class="btnPriText">+ New draft</text>

    <rect x="0" y="780" width="360" height="68" class="panel"/>
    <rect x="12" y="794" width="160" height="40" class="btn"/><text x="48" y="818">Download PDF</text>
    <rect x="184" y="794" width="164" height="40" class="btnPri"/><text x="214" y="818" class="btnPriText">Copy link</text>
  </g>
</svg>